<?xml version="1.0" encoding="UTF-8"?>
<svg width="284px" height="232px" viewBox="0 0 284 232" version="1.1" xmlns="http://www.w3.org/2000/svg" xmlns:xlink="http://www.w3.org/1999/xlink">
    <title>Frog Outline</title>
    <g id="Page-1" stroke="none" stroke-width="1" fill="none" fill-rule="evenodd">
        <g id="Desktop-HD" transform="translate(-622.000000, -218.000000)" stroke="#979797" stroke-width="5">
            <g id="Frog-Outline" transform="translate(625.083771, 221.467143)">
                <path d="M137.349332,225.206577 L0,225.206577 C8.19716457,158.845548 26.0658272,113.24783 53.6059878,88.4134237 C81.1461485,63.5790174 115.925801,44.4677497 157.944946,31.0796206 C160.487263,10.3598735 172.211034,0 193.116258,0 C214.021482,0 224.802799,11.1562447 225.460207,33.4687341 C240.045847,35.8047463 250.729652,38.177429 257.511625,40.5867823 C267.684583,44.2008123 276.152588,44.2008123 277.952641,54.5361318 C279.752695,64.8714514 268.300509,84.029936 252.288431,100.32151 C241.613711,111.18256 221.889654,124.07126 193.116258,138.98761 C195.327093,187.785214 197.675536,214.289176 200.161586,218.499497 C202.647636,222.709817 213.827526,224.278844 233.701256,223.206577" id="Path-2"></path>
                <path d="M3,223.206577 C16.0504804,184.066325 36.2583962,151.729857 63.6237472,126.197174 C104.671774,87.8981492 145.382719,93.1753191 154.218563,116.0712 C158.615394,127.464488 147.457167,164.396628 97.9162288,193.003057 C82.6110243,201.840743 50.9722814,211.908583 3,223.206577 Z" id="Path-3"></path>
            </g>
        </g>
    </g>
</svg>